<svg xmlns="http://www.w3.org/2000/svg" width="119" height="151" viewBox="0 0 119 151" fill="none">
                              <path d="M27.6429 42.4289C27.9964 37.8398 28.6776 33.276 29.468 28.7994C29.468 28.7994 29.4792 28.7793 29.4747 28.7637C29.8811 26.5054 31.9638 19.5025 27.1186 21.0442C26.67 21.1882 26.2456 21.4772 26.0262 21.8937C25.9814 21.9739 25.9566 22.0653 25.8673 22.1075C25.7132 22.2187 25.4838 22.0643 25.4263 21.8612C25.3688 21.6581 25.4182 21.4754 25.432 21.2858C25.4947 20.1374 24.4767 19.5821 23.4553 19.5508C22.7529 19.5136 22.001 19.6592 21.378 20.0213C21.072 20.1924 20.8039 20.4371 20.6003 20.7311C20.4347 20.9805 20.2863 21.5288 19.9028 21.4856C19.6575 21.4539 19.5622 21.1771 19.4602 20.936C18.8572 19.2843 16.5621 19.344 15.3314 20.1821C15.088 20.3355 14.8779 20.5469 14.6923 20.7851C14.6319 20.8697 14.2627 21.4131 14.3562 21.5047C13.811 20.9505 13.2145 20.3938 12.4589 20.1692C11.3021 19.8388 9.99384 20.4626 9.31589 21.4648C8.73193 22.3221 8.56454 23.399 8.66714 24.4162C8.78068 25.5316 8.7492 26.6711 8.76901 27.8131C8.81834 33.8237 8.82081 39.8476 9.07088 45.8519C9.35245 51.7292 9.82799 57.6359 11.341 63.3331C12.5068 67.7448 14.9568 72.282 17.6807 75.999C19.7176 78.7801 23.9138 82.3331 28.3178 82.6884C29.8698 82.8056 31.3312 82.5434 32.553 81.674C37.6057 78.0653 32.0505 70.7291 30.5094 66.66C27.7177 59.2495 27.0705 51.2482 27.5783 43.3922C27.5924 43.0845 27.6176 42.7567 27.6473 42.4445" fill="#F4D137"/>
                              <path d="M20.5285 24.2287C20.5436 24.4606 20.4114 24.7681 20.3416 25.0579C20.2786 25.312 20.0776 25.4365 19.8792 25.3914C19.6652 25.3508 19.5652 25.1766 19.5413 24.9134C19.5264 24.5632 19.6029 24.2378 19.6482 23.9212C19.7094 23.482 19.7081 23.0605 19.6511 22.621C19.6136 22.4291 19.6229 22.2239 19.795 22.057C19.9559 21.9102 20.0898 21.906 20.259 22.0268C20.4884 22.1812 20.6105 22.4335 20.5787 22.6788C20.5152 23.1693 20.5743 23.6757 20.5173 24.2487" fill="#E68322"/>
                              <path d="M24.8289 25.0531C24.856 24.9105 24.8474 24.761 24.9258 24.6207C24.9817 24.5204 24.9664 24.4067 24.9666 24.2885C24.9854 23.8781 24.9841 23.4566 25.0184 23.0419C25.0387 22.9349 25.0747 22.8234 25.1306 22.7232C25.2494 22.487 25.5394 22.4386 25.6527 22.6597C25.7904 22.9075 26.0107 23.1489 25.836 23.4852C25.7844 23.6011 25.7862 23.7862 25.806 23.9156C25.8722 24.2681 25.7756 24.5824 25.679 24.8966C25.6295 25.0794 25.5488 25.271 25.5194 25.465C25.4988 25.6902 25.251 25.828 25.0526 25.7829C24.9099 25.7558 24.7855 25.5548 24.7881 25.3854C24.786 25.3184 24.8039 25.2627 24.8019 25.1958C24.8042 25.1445 24.8065 25.0932 24.8089 25.0419" fill="#E68421"/>
                              <path d="M14.7411 23.8775C14.8072 24.23 14.6036 24.524 14.5115 24.8539C14.4553 25.0723 14.1428 25.1608 13.9468 25.0645C13.8666 25.0197 13.782 24.9593 13.7978 24.8367C13.7981 24.7185 13.7783 24.5891 13.7942 24.4665C13.8712 23.9046 13.7832 23.3558 13.7934 22.796C13.7913 22.7291 13.7624 22.6867 13.7759 22.6153C13.8277 22.3813 14.0378 22.1699 14.2274 22.1836C14.4325 22.193 14.6997 22.4211 14.7104 22.6374C14.7385 23.0345 14.8536 23.4406 14.7411 23.8775Z" fill="#E68322"/>
                              <path d="M73.8177 111.884C73.0992 115.125 72.6548 118.441 72.5156 121.94C72.457 123.222 72.481 124.498 72.5362 125.764C72.5873 126.898 72.6696 128.022 72.7875 129.153C72.8748 130.056 72.8639 130.971 72.9154 131.867C72.9433 132.382 72.8686 132.893 72.7626 133.412C72.722 133.626 72.6257 133.823 72.4804 133.965C72.0378 134.428 71.5353 134.739 70.8618 134.744C69.3608 134.748 67.8531 134.787 66.3566 134.806C66.2071 134.814 66.0777 134.834 65.9283 134.843C65.1342 134.899 64.3581 134.9 63.5663 134.904C61.9984 134.91 60.4261 134.9 58.8539 134.89C58.7557 134.901 58.6487 134.88 58.5727 134.969C57.9772 134.953 57.3953 134.864 56.7996 134.966C56.5296 135.025 56.2599 134.967 55.9722 134.964C55.1024 134.991 54.2372 134.915 53.3694 135.009C52.9924 135.049 52.5889 134.994 52.1986 134.987C51.4977 135.253 50.7731 135.138 50.0439 135.125C49.8744 135.122 49.6916 135.073 49.5265 135.086C47.508 135.168 45.49 135.014 43.4602 135.117C43.2238 135.117 42.9694 135.172 42.7513 134.997C42.7179 134.939 42.6622 134.921 42.5997 134.939C41.9371 135.042 41.2771 134.976 40.5992 134.966C39.9881 134.953 39.3703 134.977 38.748 134.984C38.3265 134.985 37.9391 134.69 37.8396 134.28C37.7998 134.139 37.7912 133.99 37.8026 133.851C37.7979 131.929 37.7932 130.006 37.7885 128.084C37.8007 127.591 37.8642 127.101 37.8452 126.617C37.8394 126.179 37.8381 125.758 37.7855 125.334C37.7374 124.926 37.7092 124.529 37.6923 124.112C37.6582 123.396 37.5884 122.673 37.5186 121.95C37.4858 121.656 37.4842 121.352 37.4826 121.049C37.4569 120.601 37.3998 120.161 37.2915 119.719C37.2738 119.657 37.2517 119.579 37.2652 119.507C37.2392 118.165 36.9543 116.862 36.7363 115.557C36.6814 115.184 36.5996 114.836 36.5447 114.463C36.2252 112.681 35.8076 110.909 35.3318 109.171L30.2402 90.7845L29.3963 88.1041C29.2523 87.6555 29.1396 87.1981 28.98 86.7539C28.6675 85.8299 28.3751 84.9171 28.0939 83.9843C27.6312 82.4109 26.9967 80.8863 26.5697 79.3197C26.4111 78.4028 26.1164 77.5412 25.8216 76.6797C25.4449 75.5883 25.2175 74.4883 25.0839 73.3617C24.9215 72.1927 24.5827 71.0568 24.5541 69.8836C24.5293 68.9625 24.4421 68.0591 24.4842 67.1358C24.4959 66.8794 24.4051 66.6182 24.3967 66.3506C24.386 66.1342 24.304 65.9043 24.4917 65.733C24.5297 65.6885 24.5698 65.7109 24.5008 65.6461C24.2939 65.4516 24.3345 65.2376 24.4532 65.0014C24.5628 63.8397 24.6612 62.698 24.8778 61.5566C25.0764 60.4709 25.3865 59.4212 25.6364 58.3378C25.7603 57.7627 25.9399 57.2055 26.1352 56.6439C26.5301 55.5363 26.8449 54.384 27.427 53.3415C27.8412 52.5997 28.1552 51.802 28.585 51.0558C29.2008 49.9532 29.8967 48.8953 30.6571 47.8867C31.308 47.0272 32.0612 46.2907 32.8545 45.5765C33.2456 45.2294 33.6723 44.8891 34.1123 44.5957C34.9342 44.0422 35.7762 43.4998 36.6182 42.9575C37.0582 42.6641 37.8374 42.2576 38.3308 42.0334C39.3488 41.5762 40.3579 41.0878 41.3848 40.6618C42.4428 40.227 43.4921 39.7609 44.5679 39.3886C45.0008 39.249 45.4362 39.0582 45.8647 38.903C46.0365 38.8543 46.1438 38.7564 46.1576 38.5669C46.1555 38.5 46.1847 38.4242 46.1982 38.3529C46.3643 37.867 46.2536 37.4765 45.7881 37.2034C45.5231 37.0422 45.3921 36.7587 45.3281 36.4731C45.22 35.9131 45.1476 35.3598 45.1221 34.7933C45.1005 34.4788 45.3418 34.2585 45.6009 34.1007C45.8487 33.963 46.121 33.8521 46.4155 33.8193C47.1539 33.745 47.8722 33.6596 48.615 33.601C50.1363 33.4906 51.6708 33.427 53.1877 33.301C54.2093 33.214 55.2153 33.1315 56.2258 33.0645C56.8704 33.0169 58.0704 32.9637 58.7171 32.983C59.7541 33.0098 60.7893 32.8515 61.8352 32.9095C62.3837 32.9397 62.9323 32.9699 63.4741 33.0357C63.8933 33.0857 64.2315 33.4455 64.2328 33.867C64.2464 34.8082 63.8855 35.6193 63.3531 36.3608C63.0623 36.7638 62.961 37.1806 63.1451 37.6516C63.2183 37.8503 63.412 37.9979 63.6216 38.0229C64.5625 38.1275 65.5055 38.2991 66.4488 38.3524C67.459 38.4037 68.4554 38.6445 69.4315 38.9923C70.4477 39.3625 71.4818 39.677 72.4912 40.0829C73.4561 40.4508 74.3694 40.9345 75.2112 41.5229C75.9038 42.0017 76.5471 42.545 77.2553 43.0194C77.5693 43.2342 78.039 43.6411 78.2926 43.9405C78.7175 44.4276 79.1648 44.8746 79.6657 45.2727C80.3114 45.7648 80.6801 46.4703 81.1024 47.127C81.6981 48.0382 82.2514 48.9783 82.8003 49.9029C83.207 50.5639 83.5512 51.2426 83.911 51.917C84.0576 52.1961 84.2042 52.4752 84.3239 52.7787C84.4703 53.176 84.7856 53.8123 84.9788 54.1964C85.274 54.8215 85.5537 55.451 85.7752 56.1139C85.926 56.5268 86.1504 56.902 86.2231 57.337C86.3332 57.964 86.6464 58.5334 86.6941 59.178C86.7004 59.3787 86.836 59.5597 86.9048 59.7427C87.0266 60.1132 87.0815 60.4858 87.1321 60.8427C87.2503 61.8555 87.4578 62.8261 87.5916 63.8345C87.6312 64.0933 87.5214 64.3607 87.5922 64.6106C87.6937 65.0881 87.6771 65.5653 87.6761 66.0381C87.6745 66.7474 87.7711 67.4456 87.687 68.1614C87.6803 68.197 87.7092 68.2395 87.7224 68.2863C87.7472 69.2075 87.598 70.1104 87.5158 71.0112C87.388 72.3469 87.2201 73.6601 86.9853 74.9754C86.8452 75.7914 86.6494 76.5894 86.4581 77.403C86.1925 78.4908 85.947 79.5898 85.55 80.6304C83.0822 87.2868 80.3872 93.8557 77.5918 100.369C75.9465 104.21 74.6848 107.976 73.8289 111.864" fill="#65BBD8"/>
                              <path d="M67.3694 133.674C67.3694 133.674 67.434 133.723 67.4629 133.766C68.0139 134.757 69.0058 134.982 69.9869 135.109C70.9991 135.228 71.839 135.631 72.6183 136.237C73.0302 136.559 73.4489 136.845 73.7267 137.29C74.2268 138.042 74.0933 138.941 73.6793 139.565C73.4802 139.874 73.123 140.043 72.7725 140.176C72.4421 140.32 72.0896 140.386 71.7681 140.562L71.1659 140.58C70.7803 140.47 70.3767 140.416 69.9864 140.408C68.9895 140.404 68.0197 140.257 67.0251 140.201C65.734 140.111 64.4609 139.966 63.1968 139.733C63.0898 139.713 62.9672 139.697 62.8558 139.661C62.3207 139.56 62.027 139.238 61.8453 138.716C61.586 137.979 61.2798 137.256 60.9736 136.533C60.6252 135.72 60.3505 134.87 60.1583 134.013C60.1451 133.966 60.1206 133.939 60.0917 133.897C60.1792 133.67 60.3799 133.663 60.5538 133.682C61.2294 133.743 61.8941 133.707 62.5544 133.655C64.0288 133.558 65.4983 133.681 66.9615 133.604C67.0909 133.584 67.2135 133.6 67.3338 133.667" fill="#E68321"/>
                              <path d="M85.7883 80.0409C85.9479 79.4726 86.1119 78.9198 86.2759 78.3671C86.3007 78.2757 86.321 78.1687 86.3457 78.0773C86.5264 77.0473 86.814 76.0377 86.9434 75.0053C86.9525 74.9184 87.0085 74.8181 87.0689 74.7335C87.1405 74.6289 87.1652 74.5375 87.1454 74.4081C87.0884 73.9686 87.1741 73.5562 87.311 73.1461C87.394 72.9032 87.3277 72.6689 87.3594 72.4236C87.5429 71.106 87.6551 69.7748 87.7361 68.4524C87.7454 68.2472 87.7504 68.0265 87.8623 67.826C89.0582 68.6515 90.2584 69.4927 91.4655 70.2983C92.1981 70.7994 92.8928 71.3451 93.6098 71.8507C94.4226 72.3967 95.1683 73.0629 95.9812 73.6089C96.5446 73.9892 97.0476 74.4542 97.5618 74.8992C98.3677 75.599 99.1735 76.2988 99.9681 77.0187C100.876 77.8414 101.773 78.6842 102.536 79.6493C102.663 79.799 102.805 79.9443 102.932 80.094C103.58 80.7711 104.031 81.5884 104.54 82.3723C105.073 83.1831 105.522 84.0516 105.966 84.9045C106.221 85.389 106.497 85.8848 106.694 86.4026C107.031 87.3534 107.384 88.2998 107.584 89.3061C107.697 89.8817 107.825 90.453 107.933 91.013C108.072 91.6824 108.046 92.3648 108.051 93.0383C108.051 94.0508 107.909 95.0363 107.73 96.015C107.647 96.4943 107.432 96.9265 107.261 97.3967C107.014 98.0742 106.692 98.7225 106.293 99.3416C106.15 99.5509 106.052 99.7983 105.948 100.03C105.796 100.326 105.579 100.573 105.403 100.843C104.528 102.103 103.47 103.196 102.239 104.152C101.047 105.064 99.7448 105.77 98.3852 106.392C97.845 106.629 97.2847 106.856 96.7445 107.093C95.7421 107.546 94.6887 107.878 93.6642 108.253C93.162 108.446 92.6441 108.643 92.1065 108.711C91.7295 108.75 91.4168 108.957 91.0442 109.012C90.4597 109.093 89.8906 109.288 89.2949 109.39C88.3779 109.548 87.4875 109.801 86.5794 109.99C85.4437 110.211 84.2948 110.385 83.1416 110.424C82.7402 110.437 82.3275 110.47 81.9125 110.553C81.29 110.679 80.6521 110.691 80.0298 110.699C79.5258 110.706 79.0439 110.792 78.5398 110.8C78.1339 110.797 77.7301 110.861 77.3154 110.827C76.9988 110.781 76.702 110.865 76.3875 110.887C75.6402 110.93 74.9133 110.866 74.1684 110.858C73.1559 110.858 72.1436 110.739 71.1334 110.688C70.1188 110.621 69.2945 110.214 68.5757 109.523C68.2018 109.156 67.8279 108.79 67.5032 108.359C67.3098 108.093 67.1989 107.82 67.1884 107.486C67.1801 107.218 67.1874 106.946 67.1947 106.674C67.3777 106.605 67.5693 106.686 67.7432 106.704C68.5214 106.771 69.278 106.523 70.0341 106.511C70.2705 106.511 70.4759 106.402 70.6525 106.251C70.7709 106.133 70.8136 105.986 70.7694 105.83C70.7162 105.642 70.5535 105.604 70.3996 105.597C70.3684 105.606 70.3327 105.599 70.3171 105.604C69.3866 105.834 68.4274 105.903 67.4925 106.117C67.2738 106.179 67.2176 106.398 67.0634 106.509C66.8231 106.256 66.538 106.084 66.2485 105.896C65.7541 105.58 65.3289 105.211 65.1719 104.598C65.0126 104.035 64.9245 103.487 65.0128 102.905C65.0784 102.481 65.2643 102.125 65.4858 101.775C65.6022 101.59 65.7342 101.401 65.8016 101.162C65.8511 100.98 65.818 100.803 65.6688 100.694C65.1924 100.322 65.0218 99.7801 64.8044 99.2511C64.4407 98.3247 64.7526 97.4601 65.1001 96.6022C65.2571 96.2033 65.5433 95.9029 65.8783 95.656C66.0637 95.536 66.1801 95.3511 66.3454 95.2199C66.5912 95.0153 66.6073 94.7744 66.4896 94.5378C66.3253 94.1962 66.3217 93.826 66.1886 93.4755C66.04 93.1295 66.1433 92.7796 66.211 92.4229C66.3734 91.5668 66.7676 90.8139 67.3021 90.1393C67.651 89.7029 68.1467 89.4275 68.6846 89.2413C69.7536 88.9046 70.8757 88.7554 71.9979 88.6062C72.5199 88.5427 73.0219 88.4679 73.546 88.4713C74.0701 88.4747 74.5611 88.3018 75.0365 88.1333C75.4963 87.9693 75.9714 87.919 76.4401 87.7863C77.1743 87.5782 77.9306 87.4483 78.6648 87.2402C79.1335 87.1074 79.611 87.0059 80.0973 86.9356C80.4386 86.8895 80.7534 86.7497 81.0859 86.6723C81.6683 86.5242 82.2395 86.3961 82.8264 86.2635C82.9513 86.2281 83.0607 86.1972 83.1812 86.1461C83.5252 85.9305 83.9334 85.8824 84.3083 85.7761C85.6361 85.3999 86.9483 85.0281 88.3136 84.8437C88.6393 84.802 88.6841 84.7218 88.4974 84.4204C87.9595 83.594 87.3747 82.7809 86.81 81.979C86.3942 81.4049 85.9159 80.8486 85.7323 80.1412" fill="#F4D137"/>
                              <path d="M44.5419 134.17C45.3985 134.096 46.2571 134.089 47.1114 134.066C48.289 134.053 49.453 134.112 50.6218 134.067C51.6879 134.018 52.7718 134.032 53.8312 134.019C53.6367 134.226 53.4711 134.475 53.3969 134.749C53.2509 135.246 53.0848 135.732 52.9744 136.236C52.7651 137.105 52.5803 138.001 52.2796 138.846C52.1741 139.129 52.0153 139.343 51.705 139.498C50.9637 139.86 50.165 140.019 49.3597 140.095C48.9001 140.141 48.4495 140.218 48.0032 140.311C47.2133 140.501 46.4038 140.443 45.6098 140.5C44.6462 140.553 43.6982 140.602 42.7302 140.64C41.9986 140.679 41.2761 140.631 40.5809 140.321C39.9014 140.008 39.6416 139.507 39.7725 138.778C39.9417 137.887 40.61 137.208 41.4981 137.007C41.8931 136.912 42.268 136.806 42.6585 136.695C42.9241 136.62 43.0873 136.422 43.2706 136.235C43.883 135.656 44.1745 134.899 44.5018 134.148" fill="#E68321"/>
                              <path d="M60.933 37.587C60.6341 37.6042 60.3576 37.5813 60.0788 37.6097C59.5724 37.6688 59.0618 37.5941 58.5619 37.7357C58.4682 37.7623 58.3656 37.7576 58.2698 37.7172C58.0469 37.6454 57.8105 37.6449 57.5874 37.6912C57.2661 37.7485 56.9516 37.7701 56.6238 37.7449C56.5369 37.7358 56.4676 37.7891 56.3851 37.7956C56.1776 37.8376 55.9633 37.9152 55.7673 37.8188C55.667 37.7629 55.5621 37.8095 55.4639 37.8204C54.9732 37.8751 54.5001 37.9923 53.994 37.9332C53.6818 37.9035 53.3514 38.0477 53.028 38.0381C52.756 38.0308 52.506 38.1016 52.236 38.1613C52.0173 38.2232 51.7968 38.1001 51.5536 38.1353C51.248 38.1881 50.9535 38.2209 50.6591 38.2537C50.5609 38.2647 50.456 38.3113 50.3646 38.2865C49.7181 38.1491 49.0821 38.3462 48.451 38.3225C48.1945 38.3108 47.9381 38.2991 47.6772 38.2718C47.3963 38.2332 47.2538 38.088 47.2054 37.7979C47.1877 37.7354 47.1968 37.6485 47.1791 37.586C47.1059 37.3873 47.1952 37.3452 47.3715 37.3121C47.6147 37.2769 47.88 37.3199 48.0987 37.2579C48.5897 37.085 49.0711 37.2355 49.5463 37.1853C49.8407 37.1524 50.144 37.1509 50.4297 37.0868C50.6015 37.0381 50.8022 37.0319 50.9761 37.0501C51.6898 37.0673 52.386 36.9037 53.0952 36.9053C53.5368 36.9152 53.9695 36.8938 54.4202 36.8167C54.6789 36.7772 54.989 36.7399 55.252 36.8342C55.3679 36.8857 55.4772 36.8547 55.5866 36.8238C56.0307 36.6641 56.4811 36.7053 56.9407 36.6594C57.6009 36.6074 58.2453 36.6779 58.9056 36.6258C59.3495 36.5844 59.8155 36.6211 60.2571 36.631C60.663 36.6341 61.0869 36.5815 61.4907 36.5177C61.9101 36.4495 62.0926 36.6172 62.0382 37.0207C62.0049 37.3002 61.8417 37.4589 61.5487 37.4969C61.3412 37.5388 61.127 37.6164 60.9174 37.5914" fill="#FBEAD0"/>
                              <path d="M48.6912 54.3542C48.6095 54.0062 48.773 53.6898 49.0724 53.4362C49.4947 53.0803 49.9547 52.7981 50.5322 52.8707C50.9982 52.9074 51.3747 53.1045 51.5432 53.5799C51.5697 53.6736 51.6275 53.7585 51.6697 53.8478C52.1295 54.6963 51.4719 55.5914 50.6619 55.7703C50.5369 55.8057 50.3987 55.7943 50.2893 55.8252C49.6197 56.0825 48.7225 55.3579 48.6996 54.6219C48.6819 54.5594 48.6954 54.4881 48.6868 54.3386" fill="#171818"/>
                              <path d="M59.7348 52.4738C60.6403 52.4535 61.3126 53.0393 61.362 53.8691C61.3959 54.7032 60.6607 55.3841 59.9179 55.4427C59.4227 55.4818 58.9704 55.2555 58.5786 54.9447C58.3159 54.7322 58.2831 54.4378 58.2815 54.1344C58.2526 53.0795 58.7623 52.4963 59.7303 52.4582" fill="#171818"/>
                              <path d="M55.5065 57.266C54.6298 57.3287 53.8498 57.0772 53.0789 56.7388C52.6154 56.5326 52.2793 56.2397 52.0148 55.8421C51.768 55.5071 51.9541 55.0324 52.378 54.9798C52.4717 54.9533 52.5451 55.0337 52.5941 55.0873C53.1497 55.9762 54.0099 56.2725 54.9977 56.3638C55.2898 56.3823 55.602 56.412 55.9053 56.4104C56.6525 56.3674 57.2287 56.0185 57.6382 55.3794C57.6718 55.3192 57.7054 55.2591 57.739 55.1989C57.8262 55.0898 57.8668 54.8758 58.0741 54.9521C58.3482 55.0263 58.4438 55.1849 58.4321 55.4413C58.4271 55.6621 58.3063 55.8313 58.1811 55.9849C57.4768 56.7751 56.6192 57.3219 55.5065 57.266Z" fill="#D75527"/>
                              <path d="M67.0995 106.397C67.1495 105.978 67.1807 105.969 67.5757 105.874C68.4281 105.666 69.3381 105.662 70.184 105.371C70.2777 105.345 70.3758 105.334 70.4828 105.354C70.688 105.363 70.8864 105.408 70.9684 105.638C71.0593 105.899 70.9739 106.194 70.7372 106.311C70.5006 106.429 70.2527 106.567 69.9694 106.58C69.4899 106.614 68.9837 106.555 68.5416 106.782C68.1204 106.665 67.6494 106.849 67.2396 106.594C67.2063 106.536 67.1529 106.466 67.1151 106.393" fill="#E68321"/>
                              <path d="M55.1497 52.0166C55.9526 51.9916 56.7699 52.5532 57.0381 53.3209C57.0912 53.5084 57.18 53.7026 57.2019 53.8989C57.2547 54.2046 57.0425 54.3491 56.7483 54.2637C56.6569 54.239 56.6192 54.1653 56.6082 54.0671C56.6132 53.8464 56.5044 53.6409 56.4312 53.4423C56.2359 52.9913 55.8574 52.7274 55.3713 52.6795C54.8651 52.6204 54.4478 52.7555 54.188 53.2679C54.0804 53.484 53.9328 53.6777 53.8097 53.8982C53.7245 54.0742 53.5751 54.0828 53.4012 54.0646C53.2072 54.0352 53.1361 53.9034 53.2213 53.7274C53.3803 53.3955 53.555 53.0591 53.7698 52.7451C54.1166 52.2418 54.5162 52.0442 55.1497 52.0166Z" fill="#F3D138"/>
                              <path d="M67.6442 100.639C68.0705 100.535 68.5766 100.595 69.0564 100.442C69.3064 100.371 69.5985 100.389 69.8661 100.381C70.1851 100.375 70.3231 100.505 70.3738 100.743C70.4155 101.069 70.2653 101.432 69.9909 101.476C69.4308 101.584 68.8974 101.786 68.311 101.682C68.1684 101.655 67.99 101.621 67.8539 101.677C67.5034 101.81 67.1803 101.682 66.8413 101.677C66.6875 101.67 66.5672 101.603 66.4581 101.515C66.3446 101.413 66.1998 101.319 66.2737 101.163C66.3477 101.007 66.3995 100.773 66.6158 100.762C66.9504 100.752 67.2451 100.601 67.6398 100.624" fill="#E68321"/>
                              <path d="M68.3891 95.9392C67.8626 95.9872 67.3586 95.995 66.893 95.7219C66.5879 95.5383 66.5551 95.2439 66.8477 95.0259C67.0711 94.8614 67.301 94.7794 67.5975 94.8135C68.0992 94.8569 68.6054 94.916 69.092 94.7275C69.3799 94.6122 69.6898 94.6931 69.9863 94.7272C70.3854 94.766 70.5073 95.1365 70.2568 95.4437C70.078 95.6463 69.8791 95.8377 69.5758 95.8392C69.375 95.8455 69.1897 95.9655 68.9957 95.9361C68.7861 95.9111 68.6054 95.9286 68.3935 95.9549" fill="#E68322"/>
                            </svg>