<svg xmlns="http://www.w3.org/2000/svg" width="115" height="112" viewBox="0 0 115 112" fill="none">
                          <g class="hand">
                            <path class="" d="M88.1482 36.7219C88.2548 37.2015 88.6367 37.5745 88.69 38.0718C89.3205 39.3418 89.6757 40.7094 90.1553 42.0416C90.5017 43.0096 90.8303 43.9776 90.9812 44.99C91.2299 45.4252 91.2654 45.9137 91.3898 46.3844C91.6651 47.379 91.8161 48.4003 91.9404 49.4216C92.1091 50.7982 92.118 52.1836 92.1624 53.569C92.1624 53.7911 92.0825 54.0397 92.2423 54.244C92.9173 54.0575 93.6278 54.1285 94.3116 54.0575C95.4128 53.942 96.5141 53.8088 97.6153 53.7289C98.8942 53.6312 100.182 53.5957 101.47 53.5246C102.677 53.4536 103.885 53.3381 105.084 53.3115C106.381 53.2937 107.651 53.1072 108.921 52.9474C109.764 52.8408 110.564 52.5477 111.327 52.1392C112.42 51.5531 112.926 50.0344 112.713 49.1819C112.615 48.8 112.411 48.4714 112.224 48.1339C112.136 47.974 112.02 47.8408 111.914 47.6899C111.772 47.4767 111.772 47.3879 111.94 47.2192C112.1 47.0593 112.287 46.9083 112.446 46.7396C112.988 46.1534 113.264 45.4341 113.432 44.6703C113.503 44.3329 113.45 43.9954 113.335 43.6845C113.139 43.1517 112.899 42.6277 112.455 42.2547C112.065 41.9261 111.656 41.6153 111.256 41.2867C111.123 41.1801 111.079 41.0647 111.185 40.887C111.514 40.3897 111.745 39.848 111.896 39.2707C112.153 38.3116 111.789 37.1837 110.99 36.5798C110.724 36.3755 110.439 36.2068 110.155 36.0381C109.951 35.9137 109.72 35.9048 109.489 35.896C108.734 35.8604 107.997 35.9936 107.26 36.0558C106.132 36.1446 105.004 36.269 103.876 36.3666C103.779 36.3755 103.672 36.3666 103.574 36.34C103.486 36.3222 103.459 36.2334 103.477 36.1624C103.503 36.0647 103.557 35.9759 103.61 35.8871C103.885 35.4075 104.036 34.9013 104.027 34.3418C104.027 33.9954 103.912 33.6846 103.743 33.4004C103.637 33.2228 103.512 33.0541 103.388 32.8942C103.29 32.7699 103.201 32.6278 103.068 32.5656C102.447 32.2459 101.807 31.9528 101.088 32.015C100.235 32.0949 99.4093 32.2903 98.7165 32.8498C98.6366 32.912 98.5389 32.9652 98.4501 33.0097C97.6064 33.4182 96.8604 33.9688 96.1233 34.5194C95.5905 34.9191 95.0132 35.1411 94.3915 35.3187C92.5088 35.8516 90.5905 36.2246 88.6722 36.5887C88.4946 36.6242 88.3258 36.6864 88.1482 36.7308V36.7219Z" fill="#E3A9C2"/><path d="M106.958 38.5598C106.292 39.066 105.866 39.8475 105.635 40.6557C105.475 41.2063 105.413 41.8368 105.715 42.3253C105.999 42.7871 106.567 43.0446 106.754 43.5508C107.011 44.2524 106.399 44.954 106.239 45.6823C106.07 46.4549 106.452 47.3075 107.145 47.6894C107.464 47.867 107.855 47.9558 108.095 48.2311C108.397 48.5775 108.361 49.0837 108.432 49.5366C108.566 50.3714 109.161 51.1263 109.942 51.4638C110.724 51.8012 111.674 51.7036 112.376 51.2329C113.29 50.6112 113.699 49.4744 113.939 48.391C114.285 46.8102 114.391 45.1583 114.116 43.5597C113.832 41.9612 113.157 40.4159 112.065 39.2169C110.777 37.8138 108.583 37.3342 106.967 38.5598H106.958Z" fill="#E3A9C2"/>
                            <path d="M107.864 42.9209C107.908 42.9209 107.953 42.9386 107.979 42.9297C108.104 42.912 108.228 42.9031 108.352 42.8676C108.939 42.7077 109.525 42.5479 110.111 42.388C110.182 42.3702 110.244 42.3436 110.315 42.3081C110.422 42.2548 110.493 42.1837 110.466 42.0594C110.448 41.9706 110.439 41.8818 110.413 41.8019C110.324 41.5532 110.209 41.4999 109.96 41.571C109.32 41.7486 108.681 41.9262 108.05 42.1038C107.944 42.1305 107.846 42.166 107.748 42.2193C107.624 42.2814 107.58 42.3969 107.624 42.539C107.66 42.6367 107.713 42.7344 107.766 42.8321C107.793 42.8765 107.837 42.9031 107.864 42.9386V42.9209Z" fill="#CA6391"/>
                            <path d="M111.63 48.2675C111.63 48.2142 111.63 48.1254 111.612 48.0366C111.585 47.8945 111.505 47.8057 111.363 47.8057C111.168 47.8057 110.973 47.8057 110.777 47.8323C110.369 47.8856 109.96 47.9478 109.552 47.9389C109.463 47.9389 109.374 47.9478 109.285 47.9744C109.17 48.001 109.001 47.9655 108.948 48.0987C108.877 48.2764 108.948 48.4451 109.063 48.5961C109.125 48.676 109.214 48.676 109.312 48.6671C109.862 48.6227 110.422 48.5872 110.973 48.5428C111.132 48.5339 111.292 48.5161 111.452 48.4984C111.55 48.4806 111.603 48.4096 111.647 48.2852L111.63 48.2675Z" fill="#CA6391"/>
                          </g>
                          <path d="M0.0577393 52.9652C0.555069 27.6189 16.7006 13.5871 39.7378 6.6688C40.4572 6.28692 42.0024 6.58887 42.2067 5.63861C41.8071 3.8269 40.2618 -0.871122 43.7342 0.141306C55.4304 3.74697 67.1266 7.35263 78.8228 10.9672C79.9507 11.1093 81.0342 12.619 80.1106 13.5693C79.5866 14.6084 76.8157 16.2158 77.3486 17.2726C78.6275 18.6847 79.5777 20.3455 80.7855 21.8197C91.8423 35.5852 97.0643 54.3417 89.5421 70.9668C88.1922 73.942 86.6203 76.8638 85.0306 79.6879C81.718 84.3238 77.2509 88.3824 72.1977 90.9223C65.0929 94.9187 57.4464 97.9294 49.5157 99.7589C48.823 99.9483 48.3701 100.381 48.1569 101.055C47.5886 102.414 47.2688 104.057 45.6259 104.466C43.0859 104.466 40.5549 103.222 38.1304 102.441C34.1872 100.94 29.8622 99.6079 25.7592 98.6221C23.3525 97.7695 17.0026 97.3699 17.8285 93.7642C18.0861 92.9028 18.1038 91.9791 18.4591 91.1443C18.5745 90.8779 18.5123 90.6292 18.317 90.425C16.5319 88.2403 14.809 86.0023 13.0239 83.7998C6.28328 74.9189 -0.652733 64.537 0.0488663 52.9652H0.0577393Z" fill="#F8E7CE"/>
                          <path d="M38.1398 102.442C38.4063 102.3 38.646 102.451 38.8769 102.522C40.0137 102.859 41.1416 103.223 42.2784 103.561C43.1664 103.827 44.0279 104.165 44.9604 104.262C45.1824 104.289 45.4044 104.387 45.6265 104.458C45.2979 105.426 44.8982 106.376 44.4897 107.317C44.1167 108.161 43.7171 108.996 43.3707 109.848C43.202 110.257 42.9355 110.55 42.6069 110.79C42.1718 111.109 41.6833 111.198 41.1505 111.003C40.5643 110.79 40.1292 110.434 39.8095 109.911C39.2588 109.031 38.8858 108.072 38.6194 107.086C38.5217 106.74 38.5306 106.376 38.4595 106.021C38.2908 105.168 38.1842 104.307 38.1754 103.427C38.1754 103.099 38.1487 102.761 38.1398 102.433V102.442Z" fill="#CA6190"/>
                          <path d="M18.5839 96.1084C19.6318 96.6857 20.813 96.9166 21.932 97.2896C23.0066 97.6448 24.0989 97.9556 25.1824 98.302C25.3956 98.373 25.6531 98.3819 25.7686 98.6306C25.2091 99.492 24.5963 100.318 23.8236 101.011C23.122 101.65 22.4204 102.298 21.71 102.929C21.1682 103.417 20.5199 103.737 19.8538 104.021C19.1967 104.297 18.5395 104.181 17.9444 103.799C17.5448 103.542 17.3405 103.178 17.3761 102.698C17.4205 102.156 17.4382 101.615 17.527 101.091C17.7579 99.7762 18.0066 98.4618 18.273 97.1564C18.3441 96.8011 18.4773 96.4636 18.5839 96.1262V96.1084Z" fill="#CA6190"/>
                          <path d="M59.0453 54.43C58.0595 54.1103 57.1092 53.7462 56.2833 53.089C54.9245 52.0144 54.2052 50.6289 54.1341 48.906C54.0986 48.2044 54.2407 47.5295 54.4449 46.8545C54.5959 46.3572 55.1909 46.0197 55.6705 46.1974C56.5586 46.5348 57.5089 46.668 58.4147 46.97C58.9209 47.1387 59.4183 47.3519 59.96 47.4407C60.3152 47.494 60.6616 47.6272 60.9902 47.7693C61.2833 47.8936 61.5852 47.9203 61.8872 48.0091C63.4413 48.4798 64.9955 48.9504 66.5497 49.43C67.1092 49.5988 67.2957 49.8918 67.269 50.4691C67.2513 50.8332 67.1358 51.1884 66.9671 51.4993C66.2122 52.8314 65.2353 53.9327 63.7255 54.4389C63.317 54.581 62.9085 54.7408 62.4733 54.8208C61.5408 54.9806 60.6261 54.9273 59.7291 54.6254C59.5071 54.5543 59.2851 54.4833 59.063 54.4211L59.0453 54.43Z" fill="#CC5429"/>
                          <path d="M42.9534 7.9922C43.0866 7.34389 43.0866 7.34389 43.726 7.37053C44.3743 7.39717 44.9871 7.55703 45.591 7.77905C46.488 8.10765 47.4027 8.39184 48.3086 8.67603C49.0457 8.90693 49.7917 9.11119 50.5288 9.3421C51.0617 9.50196 51.6123 9.59965 52.1363 9.83943C52.6158 10.0703 53.1664 10.1591 53.6815 10.3279C53.9302 10.4078 54.1611 10.5055 54.4275 10.4877C54.5785 10.4789 54.7384 10.5233 54.8716 10.5854C55.2446 10.7542 55.6265 10.8963 56.035 10.9407C56.1771 10.9584 56.3103 11.065 56.4524 11.1272C56.5945 11.1893 56.7366 11.2781 56.8787 11.2959C57.5803 11.367 58.2197 11.6334 58.8858 11.8465C59.6495 12.0863 60.4133 12.2995 61.1771 12.5215C62.3849 12.8856 63.5927 13.2497 64.8094 13.6138C65.0047 13.676 65.209 13.747 65.4133 13.7648C66.1948 13.8359 66.9141 14.1112 67.6513 14.351C68.5838 14.6529 69.5251 14.9193 70.4665 15.2035C71.6743 15.5676 72.8821 15.9406 74.09 16.3136C74.6228 16.4735 74.7827 16.7666 74.6583 17.2994C74.6406 17.3705 74.6228 17.4504 74.5962 17.5214C74.4896 17.7701 74.5251 18.1254 74.2143 18.2408C73.8502 18.3829 73.4505 18.3829 73.0953 18.2053C72.8644 18.0898 72.6246 18.0277 72.3759 17.9566C71.7631 17.779 71.1592 17.6191 70.5198 17.5659C70.28 17.5481 70.0491 17.3616 69.8182 17.2728C69.3919 17.104 68.9656 16.8909 68.5216 16.811C68.0864 16.731 67.6957 16.5534 67.2783 16.438C67.0207 16.3669 66.7632 16.3314 66.5145 16.1893C66.2747 16.0561 65.955 16.0827 65.6975 15.9584C65.4044 15.8252 65.0758 15.9406 64.8094 15.763C64.5518 15.5854 64.2676 15.6298 63.9923 15.5943C63.7703 15.5588 63.5305 15.4877 63.3351 15.3723C63.0154 15.1769 62.6779 15.0969 62.3138 15.0703C61.7721 15.0259 61.2659 14.8039 60.7508 14.6529C59.5874 14.3065 58.4417 13.9158 57.2872 13.5605C56.6478 13.3652 55.9906 13.2053 55.3956 12.8856C55.289 12.8323 55.1469 12.8323 55.0226 12.8234C54.2322 12.7613 53.4862 12.4948 52.7313 12.2817C52.154 12.1218 51.5501 11.962 51.0084 11.7044C50.2535 11.3492 49.4364 11.2604 48.6549 11.0561C48.2997 10.9673 47.9622 10.8696 47.6425 10.692C47.5359 10.6298 47.4116 10.5765 47.2873 10.5499C46.2215 10.3279 45.1914 10.0437 44.2056 9.58188C43.948 9.45755 43.6727 9.3865 43.4063 9.29769C42.829 9.09343 42.7402 8.93357 42.8734 8.31191C42.8912 8.21422 42.9267 8.10765 42.9445 8.00996L42.9534 7.9922Z" fill="#EAC93E"/>
                          <path d="M33.7259 96.2336C29.8538 95.0436 25.9817 93.8446 22.1096 92.6457C21.9143 92.5836 21.71 92.5303 21.5235 92.4415C21.2659 92.326 21.1594 92.0862 21.2127 91.802C21.2393 91.6777 21.2748 91.5534 21.3192 91.429C21.4258 91.1537 21.5768 91.0738 21.861 91.136C21.9143 91.1448 21.9587 91.1626 22.0119 91.1804C23.6904 91.7043 25.3601 92.2372 27.0297 92.7612C27.5181 92.9121 28.0243 93.0365 28.5128 93.1875C31.8698 94.2176 35.2268 95.2567 38.5749 96.2958C38.9213 96.4024 39.2676 96.4823 39.5785 96.6866C39.685 96.7576 39.8182 96.7754 39.9426 96.8198C41.8431 97.4059 43.7347 97.992 45.6353 98.5871C45.8306 98.6492 46.026 98.7203 46.2125 98.8091C46.399 98.889 46.479 99.0578 46.4434 99.2531C46.4079 99.4574 46.3369 99.6528 46.2569 99.8393C46.2036 99.9636 46.0704 100.017 45.9372 99.9903C45.8129 99.9636 45.6885 99.9281 45.5642 99.8926C42.3315 98.8979 39.0989 97.9032 35.8662 96.9086C35.1469 96.6866 34.4364 96.4645 33.717 96.2514L33.7259 96.2336Z" fill="#EBCB3F"/>
                          <path d="M74.5335 48.4087C74.1427 49.9185 73.1836 50.6289 71.9047 50.9398C71.2742 51.0907 70.6347 50.9842 70.0308 50.6822C69.2316 50.2826 68.6543 49.7142 68.3168 48.8794C67.8728 47.7604 68.1303 46.748 68.7964 45.8243C69.7378 44.4922 71.4518 44.1192 72.9171 44.883C73.0326 44.9451 73.1569 44.9807 73.2635 45.0428C74.4713 45.7178 74.9154 46.9966 74.6223 48.1245C74.5868 48.2755 74.5335 48.4176 74.5335 48.4087Z" fill="#1C4187"/>
                          <path d="M51.3545 45.505C49.5783 45.0343 48.3172 43.0894 49.3119 41.0201C49.4895 40.6471 49.7293 40.3097 50.0401 40.0255C50.6707 39.4571 51.4078 39.2795 52.2515 39.3239C52.9709 39.3683 53.6014 39.5903 54.2142 39.9456C55.1556 40.4873 55.644 41.624 55.4486 42.7253C55.3332 43.3736 55.1645 43.9686 54.747 44.4926C54.5694 44.7235 54.374 44.9189 54.1343 45.0699C53.2284 45.6116 52.287 45.8425 51.3545 45.4961V45.505Z" fill="#1C4187"/>
                          <path d="M61.7274 45.2201C61.1857 45.0425 60.8482 44.6695 60.8482 44.1811C60.8482 43.6305 61.1501 43.2752 61.6297 43.0443C62.1004 42.8223 62.58 42.9111 62.9707 43.2752C63.2993 43.5861 63.4237 43.9502 63.326 44.3853C63.1572 45.1402 62.5178 45.4688 61.7274 45.2113V45.2201Z" fill="#DD7F26"/>
                          <path d="M7.99763 59.9374C7.78449 59.6621 7.58023 59.3868 7.38485 59.1026C5.71523 56.687 4.35644 54.0138 3.72589 51.1364C3.21968 48.8451 3.17528 46.0476 4.51631 44.005C5.20014 42.9659 6.2392 42.2554 7.43813 41.9091C10.0047 41.172 12.7756 41.465 15.2001 42.5308C17.0296 43.3389 18.6015 44.6533 19.9514 46.1187C21.399 47.6906 22.9176 49.2003 24.4984 50.6479C24.8981 51.0121 25.4132 51.2341 25.9016 51.4472C26.6299 51.7581 27.367 52.0689 28.1041 52.3797C29.0721 52.7882 29.9069 53.3655 30.6618 54.076C30.9105 54.3158 31.097 54.5822 31.1769 54.9197C31.2213 55.0973 31.2568 55.2749 31.3279 55.4348C31.6742 56.234 31.39 56.9179 30.9016 57.5218C30.4575 58.0635 29.9247 58.5164 29.1343 58.472C28.9567 58.4632 28.779 58.5164 28.6014 58.5431C28.406 58.5697 28.3616 58.7029 28.486 58.8628C29.0544 59.591 29.6227 60.3282 30.2622 60.9942C30.8838 61.6514 31.47 62.3264 32.0117 63.0546C32.6334 63.8805 32.6245 64.7598 32.3758 65.6923C32.3048 65.9764 32.1449 66.2073 31.9407 66.4116C31.319 67.0599 30.5819 67.4951 29.6583 67.5484C29.605 67.5484 29.5517 67.5484 29.5073 67.5484C28.7879 67.5928 28.7879 67.5928 28.7169 68.3121C28.6725 68.7207 28.6547 69.1381 28.5659 69.5377C28.3172 70.6034 27.7489 71.4027 26.6476 71.7579C25.9904 71.9622 25.351 72.0155 24.676 71.8201C24.2142 71.6869 24.01 71.7935 23.7791 72.1931C23.637 72.4418 23.5126 72.6904 23.3705 72.9391C22.8643 73.7828 22.0917 74.1736 21.1326 74.2268C20.2889 74.2801 19.5784 73.9338 18.9034 73.4808C18.1219 72.9569 17.5446 72.2464 16.9585 71.527C15.6619 69.9551 14.5429 68.2588 13.2729 66.6692C12.598 65.8255 11.9585 64.9551 11.3369 64.0759C10.3067 62.6283 9.08111 61.3406 7.99763 59.9374Z" fill="#E3A9C2"/>
                          <path d="M25.6797 64.1649C25.733 64.1827 25.7863 64.1827 25.8218 64.2093C25.884 64.2448 25.9462 64.2981 25.9994 64.3514C26.7987 65.2217 27.6602 66.0122 28.5305 66.8114C28.6993 66.9624 28.6993 67.1045 28.5394 67.2732C28.4684 67.3443 28.3884 67.4065 28.3085 67.4775C28.1575 67.6196 27.9977 67.6107 27.8112 67.5308C27.5003 67.3887 27.2517 67.1667 27.0119 66.9447C26.3902 66.3674 25.7952 65.7813 25.1913 65.1862C25.0492 65.0441 25.0225 64.8576 25.1469 64.6978C25.2712 64.5379 25.4044 64.3781 25.5465 64.2271C25.5732 64.1916 25.6353 64.1827 25.6797 64.1649Z" fill="#CA6391"/>
                          <path d="M20.7329 68.9425C20.6974 68.8448 20.6974 68.7382 20.7684 68.6583C20.9105 68.5073 21.0526 68.3652 21.2125 68.232C21.3013 68.161 21.4079 68.1787 21.4878 68.2587C22.3404 69.1467 23.2107 70.026 24.0544 70.9229C24.3386 71.2249 24.1521 71.6689 23.7169 71.7666C23.6014 71.7933 23.5215 71.74 23.4416 71.6601C22.9709 71.2249 22.4913 70.7897 22.0295 70.3457C21.6654 69.9904 21.319 69.6086 20.9549 69.2533C20.8661 69.1645 20.7684 69.0757 20.7329 68.9425Z" fill="#CA6391"/>
                          
                        </svg>