<svg xmlns="http://www.w3.org/2000/svg" width="154" height="150" viewBox="0 0 154 150" fill="none">
                          <g class="hand">
                            <path d="M41.041 64.847C41.0918 64.9415 41.1763 65.0266 41.1935 65.1307C41.4329 66.1522 41.9463 67.0723 42.3059 68.0479C42.8303 69.4368 43.4605 70.7717 44.0795 72.1097C44.6891 73.4141 45.3434 74.7059 45.9306 76.0167C46.3511 76.9509 46.8101 77.85 47.3445 78.7158C47.917 79.6314 48.339 80.6136 48.9115 81.5291C49.1787 81.962 49.4683 82.3886 49.6633 82.866C47.9219 83.1268 46.1884 83.3733 44.4438 83.6228C44.1481 83.561 44.0306 83.3158 43.953 83.0835C43.5481 81.8183 42.9975 80.594 42.6343 79.3049C42.4605 78.6884 42.3361 78.5903 41.9326 78.704C41.3384 78.8714 41.1455 79.1315 41.3833 79.7179C41.8909 80.9179 42.0653 82.224 42.6817 83.3812C42.7628 83.5399 42.8581 83.7066 42.8046 83.9032L41.2022 84.1853C40.6965 83.8075 40.6107 83.2025 40.3887 82.6722C40.2554 82.3709 40.2087 82.0332 40.109 81.7225C39.9809 81.3109 39.7255 81.1772 39.3107 81.294C38.8959 81.4109 38.7191 81.6422 38.8391 82.0682C38.9876 82.5951 39.1024 83.1314 39.3293 83.6361C39.4261 83.8509 39.5485 84.0705 39.3973 84.3067C38.9055 84.4937 38.3968 84.4918 37.88 84.5043C37.4592 84.514 37.0399 84.5716 36.6111 84.5957C35.691 84.6371 34.7647 84.6561 33.8465 84.6607C33.0385 84.6706 32.2096 84.7347 31.3968 84.7702C31.1568 84.7773 31.0157 84.8776 30.8869 85.1074C29.8618 86.7514 28.3144 87.744 26.5125 88.3485C25.9471 88.532 25.299 88.5937 24.6851 88.4762C23.7675 88.3113 22.8628 88.1064 22.0697 87.5676C21.5016 87.1832 21.0105 86.7287 20.6319 86.1578C20.2532 85.5869 19.7912 85.0637 19.6434 84.3673C19.6072 84.1959 19.4618 84.1522 19.3066 84.1597C18.2219 84.1749 17.2281 83.8257 16.2263 83.4909C15.373 83.211 14.6854 82.703 14.0927 82.0593C12.5072 80.3402 12.4144 78.1642 13.3598 76.4095C13.5499 76.0535 13.5306 76.071 13.1732 75.8329C12.3801 75.2941 11.7393 74.6519 11.2946 73.7608C10.6006 72.3713 10.9444 71.1007 11.5569 69.8392C12.3098 68.2598 13.6568 67.372 15.203 66.7186C15.4289 66.6186 15.5427 66.5503 15.4477 66.2988C15.3305 65.9688 15.5076 65.6527 15.5488 65.3265C15.6001 64.8643 15.5459 64.3714 15.7906 63.9516C16.1914 63.2699 16.506 62.54 17.2037 62.053C17.6384 61.7491 17.9934 61.3344 18.4663 61.0802C19.7854 60.3939 21.1727 60.2934 22.6229 60.5019C23.5311 60.6332 24.4197 60.8668 25.2551 61.2122C26.065 61.5527 26.8731 61.93 27.5747 62.5309C28.0038 62.894 28.4601 63.2252 28.8891 63.5883C28.9991 63.6783 29.1207 63.6804 29.2454 63.6936C30.1505 63.8137 31.0572 63.897 31.9412 64.0714C32.4016 64.1595 32.8739 64.0748 33.3308 64.2365C33.5541 64.4276 33.5227 64.7027 33.5186 64.9458C33.5134 65.9153 33.4971 66.8878 33.5655 67.8607C33.5807 68.0864 33.5332 68.3901 33.8321 68.4632C34.2109 68.5622 34.6215 68.6885 35.0124 68.5299C35.2079 68.4507 35.164 68.2089 35.1502 68.0313C35.1203 67.0234 35.2008 66.0206 35.2557 65.013C35.2629 64.781 35.2383 64.5218 35.4596 64.3626C36.8751 64.4478 38.2626 64.7344 39.6784 64.7348C40.1391 64.7381 40.5736 64.906 41.0361 64.8725L41.041 64.847Z" fill="#36934B"/>
                            <path d="M42.8157 83.9003C42.4893 83.472 42.3104 82.9658 42.1346 82.4708C41.7926 81.5145 41.4922 80.5344 41.1918 79.5543C41.0213 78.9489 41.1049 78.8165 41.7232 78.6059C41.8129 78.5807 41.8963 78.533 41.9747 78.5109C42.3783 78.3972 42.5556 78.4682 42.6693 78.8718C42.9157 79.7461 43.1988 80.6222 43.5349 81.4713C43.8249 82.2003 43.9837 82.9783 44.4356 83.6375C43.9116 83.8819 43.3816 84.0192 42.8076 83.9147L42.8157 83.9003Z" fill="#EAC93E"/>
                            <path d="M35.4643 64.3365C35.3573 65.5887 35.2759 66.8458 35.3161 68.105C35.3346 68.7289 35.2881 68.7783 34.69 68.717C34.4181 68.6968 34.1479 68.6398 33.8712 68.6452C33.5912 68.6394 33.4717 68.5157 33.4583 68.2533C33.4197 67.4293 33.3506 66.626 33.3825 65.7943C33.4036 65.268 33.4471 64.7355 33.3355 64.2103C34.0477 64.1185 34.7596 64.1115 35.4643 64.3365Z" fill="#EAC93E"/>
                            <path d="M39.4118 84.3153C39.1441 83.58 38.8877 82.8416 38.6953 82.073C38.5359 81.4645 38.6245 81.3065 39.2442 81.144C40.0128 80.9516 40.0527 80.9645 40.2819 81.7349C40.5219 82.5868 40.8341 83.3942 41.2392 84.1876C40.7796 84.3171 40.3059 84.3537 39.8354 84.4016C39.6946 84.4171 39.5394 84.4245 39.423 84.3121L39.4118 84.3153Z" fill="#EAC93E"/>
                          </g>
                          <path d="M123.933 38.3812C123.748 39.014 123.753 39.6779 123.693 40.324C123.557 41.6449 123.425 42.977 123.314 44.3028C123.237 45.232 123.135 46.1563 123.117 47.0809C123.104 48.8389 122.87 50.5866 122.807 52.3349C122.745 53.792 122.661 55.2555 122.515 56.7124C122.446 57.4096 122.27 58.076 122.285 58.7736C122.069 59.851 121.874 60.9221 121.632 61.9947C121.341 63.2382 120.974 64.4671 120.472 65.6491C120.33 66.0037 120.176 66.3615 119.963 66.6759C119.657 67.1371 119.569 67.6823 119.277 68.1515C118.379 69.6024 117.539 71.0855 116.695 72.5574C116.478 72.9453 116.165 73.2513 115.887 73.5959C115.39 74.1956 114.911 74.8145 114.38 75.3757C113.845 75.9256 113.409 76.5687 112.889 77.1268C112.31 77.7373 111.747 78.356 111.169 78.9666C110.796 79.3619 110.407 79.7861 109.918 80.069C109.824 80.1199 109.735 80.1931 109.662 80.2745C109.066 80.9506 108.358 81.4887 107.648 82.0156C106.967 82.5219 106.297 83.0617 105.582 83.5294C104.764 84.0624 103.946 84.5953 103.111 85.109C102.525 85.4796 102.501 85.4379 102.665 86.1056C102.889 87.071 103.289 87.9748 103.557 88.9276C103.646 89.2415 103.734 89.5553 103.834 89.8661C104.008 90.4826 104.287 91.0451 104.528 91.6427C104.85 92.399 105.082 93.1805 105.371 93.9462C105.659 94.712 105.947 95.4777 106.311 96.2101C106.792 97.1877 107.315 98.1415 107.713 99.1668C107.949 99.7899 108.283 100.373 108.594 100.963C109.107 101.968 109.745 102.902 110.194 103.937C110.488 104.592 110.935 105.192 111.285 105.832C111.852 106.858 112.45 107.863 113.056 108.854C113.463 109.525 113.878 110.183 114.346 110.813C114.9 111.577 115.404 112.378 115.969 113.139C117.037 114.568 118.218 115.881 119.556 117.065C120.264 117.688 120.948 118.355 121.73 118.897C121.923 119.024 122.037 119.258 122.214 119.413C122.919 120.026 123.574 120.676 124.199 121.347C124.511 121.682 124.847 122.059 124.879 122.559C124.928 123.247 124.576 123.673 123.828 123.895C123.234 124.063 122.635 124.256 122.034 124.401C119.799 124.97 117.557 125.517 115.284 125.952C114.332 126.136 113.379 126.234 112.414 125.901C111.718 125.662 111.196 125.228 110.737 124.716C110.39 124.342 110.035 123.983 109.69 123.62C108.929 122.806 108.109 122.045 107.405 121.178C106.716 120.32 105.842 119.622 105.309 118.635C104.273 117.705 103.528 116.523 102.55 115.541C102.264 115.258 101.979 114.975 101.694 114.693C101.01 114.026 100.334 113.346 99.6503 112.679C99.3331 112.369 99.0222 112.082 98.6969 111.786C98.0289 111.176 97.3223 110.601 96.6237 110.011C95.5775 109.132 94.3987 108.641 93.0505 108.537C92.1357 108.468 91.3013 108.728 90.6748 109.424C90.3246 109.814 90.0989 110.301 89.9131 110.801C89.4428 112.095 89.2091 113.455 88.8524 114.766C88.2459 116.994 88.0487 119.3 87.6437 121.555C87.3988 122.919 87.0771 124.268 86.8577 125.637C86.6695 126.815 86.3501 127.958 86.0452 129.108C85.7759 130.128 85.2319 131.032 84.656 131.908C84.5208 132.115 84.3124 132.234 84.1184 132.362C83.0792 133.054 81.9352 133.546 80.7943 134.048C78.9645 134.854 77.1157 135.593 75.2795 136.377C74.4062 136.756 73.6678 136.153 73.4064 135.44C73.1149 134.664 73.1369 133.883 73.5892 133.126C74.5131 131.596 74.9863 129.926 74.9865 128.123C74.9932 126.729 75.0367 125.338 75.1681 123.958C75.203 123.609 75.0826 123.268 75.1431 122.924C75.2579 122.601 75.5392 122.655 75.7936 122.656C77.0524 122.701 78.2691 122.467 79.4892 122.159C79.8847 122.06 80.1253 121.883 79.9958 121.424C79.8758 120.998 79.6764 120.848 79.1625 120.957C78.0274 121.18 76.8955 121.414 75.739 121.389C75.5214 121.39 75.2972 121.453 75.1139 121.275C75.0106 119.791 75.1024 118.313 75.0501 116.84C74.9957 115.101 75.0149 113.365 74.9524 111.64C74.8687 109.583 74.7227 107.518 74.6134 105.456C74.5208 103.667 74.4506 101.872 74.3243 100.093C74.1694 97.8252 73.9809 95.5672 73.3842 93.3638C73.2453 92.8705 73.1063 92.3773 72.9001 91.903C72.8001 91.6771 72.6725 91.5679 72.4662 91.5655C71.9046 91.5906 71.3418 91.483 70.7837 91.4346C70.0192 91.3838 69.268 91.2083 68.5069 91.0839C67.2806 90.897 66.0672 90.6702 64.8507 90.4322C63.9555 90.261 63.0959 89.9587 62.2171 89.6739C61.6466 89.4959 61.0601 89.3465 60.4798 89.2196C59.0429 88.8864 57.6577 88.3935 56.2921 87.7982C55.6021 87.4965 54.8928 87.2123 54.1836 86.9282C53.4088 86.6262 52.7611 86.1311 52.1134 85.636C51.512 85.1763 50.8994 84.7197 50.3141 84.2313C49.9664 83.942 49.6491 83.6321 49.3673 83.2759C49.3291 83.2262 49.3294 83.1414 49.2463 83.1043C48.6857 82.8751 48.4156 82.3462 48.0637 81.913C47.2578 80.9422 46.5128 79.93 45.6876 78.9768C45.2575 78.4809 44.8788 77.91 44.5033 77.3503C44.1341 76.813 43.8788 76.2074 43.407 75.7353C42.8473 75.2518 42.5842 74.5757 42.2297 73.9617C40.4414 70.8357 38.831 67.6111 37.352 64.3374C36.4601 62.3744 35.5907 60.4052 34.9055 58.3598C34.8454 58.1468 34.7854 57.9338 34.7846 57.7162C34.7172 57.348 34.4879 57.0497 34.3564 56.7116C33.6682 55.0422 33.0665 53.3362 32.4007 51.6605C31.9981 50.6607 31.6402 49.6484 31.1846 48.6757C30.9164 48.11 30.7314 47.4966 30.4712 46.9166C30.2618 46.4311 30.0636 45.9424 29.8798 45.4618C29.7055 45.0149 29.5199 44.571 29.3792 44.1146C29.1515 43.3923 28.8789 42.6826 28.6095 41.9841C28.364 41.3273 28.1601 40.6467 27.8553 39.9945C27.4362 39.1083 27.1117 38.1712 26.6253 37.304C26.5538 37.179 26.524 37.0301 26.4829 36.8843C26.3049 36.1238 25.8096 35.5253 25.4008 34.8903C24.9236 34.1415 24.8177 33.3364 25.0111 32.5196C25.2614 31.4327 25.6109 30.3542 26.4058 29.5252C27.2907 28.5862 28.2839 27.774 29.3967 27.0853C30.5623 26.3697 31.8121 25.824 33.0381 25.2365C33.9547 24.7968 34.938 24.5076 35.9118 24.1848C36.1585 24.1153 36.3939 24.049 36.6008 23.8818C36.75 23.7671 36.9774 23.7152 37.1725 23.7207C37.7068 23.7274 38.1478 23.4459 38.6316 23.2733C38.8526 23.1989 39.0894 23.1806 39.3168 23.1286C39.7571 23.0166 40.1722 22.815 40.6634 22.7976C41.2506 22.7773 41.8447 22.6099 42.4227 22.4713C43.8702 22.1118 45.3314 21.93 46.8039 21.745C47.6345 21.6441 48.4732 21.5287 49.2944 21.3942C50.2676 21.241 51.2534 21.1326 52.2246 21.1009C53.8421 21.0445 55.4677 20.9736 57.0861 21.1347C57.6954 21.1929 58.3127 21.2368 58.9269 21.2694C59.2611 21.2962 59.6066 21.3199 59.9342 21.4091C60.4073 21.542 60.9051 21.4622 61.3931 21.4336C61.5003 21.4276 61.6012 21.3992 61.7179 21.4268C62.7827 21.5987 63.8723 21.5578 64.9469 21.6786C65.3946 21.7218 65.855 21.8099 66.287 21.797C66.9814 21.7708 67.6755 21.8293 68.3748 21.7775C69.8406 21.6549 71.2946 21.705 72.7664 21.6895C73.6815 21.6737 74.5963 21.7426 75.5037 21.6564C76.7519 21.5345 78.0206 21.528 79.2723 21.3326C79.8069 21.2546 80.3622 21.207 80.9077 21.2106C81.7044 21.2039 82.4824 21.0452 83.2682 20.9569C84.5357 20.8175 85.7998 20.7517 87.0578 20.5788C87.722 20.4884 88.3923 20.5053 89.0536 20.3189C89.4796 20.1989 89.9449 20.2614 90.3947 20.183C91.7841 19.961 93.1781 19.7981 94.5724 19.5504C95.2751 19.425 95.9807 19.3956 96.6866 19.2814C97.6711 19.125 98.6598 19.1126 99.6273 18.7674C100.178 18.5759 100.817 18.5654 101.412 18.446C101.699 18.3894 101.992 18.3553 102.272 18.2764C103.674 17.9295 105.086 17.7011 106.528 17.5368C107.362 17.4471 108.177 17.2053 109.006 17.1412C111.123 16.9681 113.234 16.7727 115.359 16.7548C116.554 16.7448 117.739 16.7859 118.911 16.9518C120.16 17.1323 121.428 17.2106 122.625 17.6357C123.839 18.08 125.072 18.5069 126.082 19.384C126.787 19.9961 127.118 20.786 127.247 21.7175C127.405 22.8347 126.952 23.7609 126.477 24.6934C126.004 25.6372 125.729 26.6344 125.573 27.6705C125.527 27.9375 125.496 28.2125 125.439 28.4827C124.996 30.3016 124.626 32.1239 124.409 33.9756C124.274 35.2117 124.087 36.4381 123.948 37.663C123.923 37.8756 123.865 38.0978 123.95 38.3157L123.933 38.3812Z" fill="#D86F2F"/>
                          <path d="M75.0901 121.317C76.4165 121.258 77.7493 121.221 79.0352 120.847C79.1585 120.812 79.2882 120.8 79.421 120.799C79.8242 120.77 80.0093 120.911 80.1086 121.307C80.137 121.408 80.1686 121.52 80.1858 121.624C80.2449 122.091 80.1983 122.141 79.7531 122.278C78.6496 122.613 77.5069 122.766 76.3595 122.859C76.1451 122.871 75.9212 122.85 75.7085 122.825C75.4959 122.8 75.3039 122.806 75.1386 122.949C75.0555 122.912 74.9693 122.864 74.9665 122.768C74.9491 122.277 74.8437 121.774 75.0982 121.303L75.0901 121.317Z" fill="#EAC93E"/>
                          <path d="M121.774 25.5227C121.426 25.6206 121.174 25.6677 120.933 25.7596C120.408 25.956 119.846 26.066 119.302 26.1951C118.757 26.3243 118.291 26.601 117.773 26.7831C117.477 26.8908 117.222 27.0594 116.926 27.1671C115.388 27.7214 114.012 28.593 112.555 29.306C111.076 30.0253 109.654 30.8615 108.267 31.7363C107.765 32.0592 107.332 32.496 106.85 32.8494C106.186 33.3269 105.529 33.8268 104.841 34.2626C103.956 34.8145 103.026 35.2942 102.001 35.5224C100.783 35.7931 99.5442 35.9486 98.2899 35.9632C96.9621 35.9743 95.6716 35.8176 94.4043 35.4851C93.4102 35.2207 92.4242 34.9419 91.4025 34.7942C90.5966 34.6825 89.7939 34.5819 88.9751 34.5102C87.6093 34.3868 86.2683 34.5227 84.9148 34.5289C84.3213 34.5267 83.7387 34.6062 83.1343 34.5224C82.7938 34.4732 82.4043 34.6797 82.022 34.6543C81.1248 34.6046 80.2174 34.6909 79.3278 34.7117C78.5935 34.725 77.8417 34.719 77.1067 34.9019C76.8713 34.9682 76.6379 34.913 76.3979 34.9201C75.638 34.9285 74.8652 34.9769 74.1007 34.9261C73.0643 34.8551 72.0308 34.8802 71.0024 34.7948C69.5519 34.6711 68.1011 34.6322 66.6514 34.7261C65.5937 34.7942 64.5265 34.8287 63.4681 34.6793C63.0395 34.6185 62.5981 34.5977 62.1612 34.6361C61.71 34.6664 61.251 34.6264 60.7952 34.5975C59.3653 34.5043 57.9598 34.7551 56.5581 34.8476C56.5357 34.8539 56.5245 34.8571 56.5021 34.8634C55.0673 34.7957 53.6394 35.0529 52.2142 35.0189C51.3999 35.0063 50.5917 35.1009 49.7677 35.1395C49.1357 35.1724 48.5114 35.2757 47.8863 35.1614C47.5027 35.088 47.1422 35.2259 46.7519 35.2149C46.0417 35.1851 45.3347 35.1665 44.6294 35.1111C44.1112 35.0756 43.6166 35.1666 43.1047 35.1535C42.2873 35.1298 41.4679 35.2276 40.6571 35.1414C39.7104 35.0452 38.7568 35.0961 37.8052 35.0254C37.2359 34.9801 36.682 35.0757 36.1221 35.064C34.4793 35.0308 32.8431 34.9353 31.2513 34.5247C30.4426 34.317 29.6405 34.0469 28.9126 33.6107C28.4289 33.3114 28.1184 32.9391 28.1398 32.3281C28.1453 32.1329 28.1364 31.9297 28.1532 31.7314C28.1778 31.1316 28.5279 30.7425 28.9405 30.3601C29.2213 30.1116 29.491 29.8662 29.7718 29.6177C31.0172 28.5408 32.4628 27.831 33.9497 27.1821C34.4993 26.9426 35.0647 26.7591 35.6048 26.4859C35.9109 26.327 36.242 26.3426 36.5464 26.2206C38.2492 25.6077 40.0326 25.2383 41.7828 24.7935C42.4249 24.6247 43.1021 24.4944 43.7758 24.4377C44.4271 24.3873 45.0755 24.2409 45.7159 24.1088C46.654 23.9171 47.6062 23.8182 48.549 23.6857C48.6275 23.6635 48.728 23.7199 48.816 23.7314C49.0399 23.753 49.2382 23.7698 49.4897 23.6747C49.8084 23.5607 50.2051 23.5941 50.568 23.637C52.7701 23.8515 54.9717 23.7635 57.1842 23.7572C58.3344 23.7598 59.4892 23.8216 60.6345 23.8498C62.0005 23.8884 63.3749 23.8278 64.7473 23.8888C65.6782 23.929 66.6011 23.9836 67.5403 23.9246C68.4316 23.8671 69.3335 23.976 70.2356 24.0001C71.2594 24.0262 72.2768 24.03 73.2897 23.9745C74.4545 23.9003 75.6068 23.7814 76.7654 23.6848C77.0614 23.6619 77.3494 23.6534 77.6405 23.656C78.6419 23.6885 79.6372 23.6137 80.6325 23.539C81.5718 23.48 82.505 23.3139 83.4397 23.1957C83.5438 23.1785 83.659 23.1581 83.7645 23.1889C84.0858 23.2556 84.3899 23.2184 84.7037 23.1299C85.2593 22.9976 85.8353 22.9805 86.4141 23.0594C86.5788 23.0856 86.7711 22.9951 86.9456 22.9701C87.9412 22.8106 88.9589 22.7295 89.9468 22.4996C90.3455 22.4115 90.7775 22.3986 91.1919 22.3666C91.784 22.3207 92.362 22.1821 92.9383 22.0802C93.3289 22.0064 93.7244 21.9071 94.1354 21.9486C94.1865 21.9584 94.257 21.9506 94.2986 21.9268C94.7235 21.674 95.2259 21.6534 95.661 21.6518C96.1473 21.66 96.5466 21.4023 97.0455 21.4553C97.3798 21.4821 97.7518 21.2563 98.1343 21.1969C98.9331 21.0687 99.7335 20.9036 100.535 20.7866C101.315 20.6758 102.088 20.5427 102.836 20.3199C103.453 20.1461 104.082 20.0173 104.712 19.9364C106.122 19.7448 107.534 19.6012 108.928 19.3535C111.129 18.9632 113.336 18.7649 115.555 18.6962C117.006 18.6503 118.471 18.6973 119.925 18.917C120.887 19.0693 121.839 19.2247 122.736 19.5767C123.254 19.7818 123.709 20.065 124.138 20.4281C124.918 21.0917 125.092 21.9258 124.866 22.8848C124.619 23.9829 123.862 24.6441 122.918 25.1157C122.525 25.3111 122.093 25.4087 121.782 25.5083L121.774 25.5227Z" fill="#F8E7CE"/>
                          <path d="M93.2072 88.8674C92.3006 89.1713 91.3085 89.2572 90.3683 89.5705C89.8702 89.7351 89.3608 89.9028 88.8627 90.0674C88.0843 90.3109 87.2632 90.4455 86.4658 90.6217C86.3201 90.6628 86.173 90.6558 86.0384 90.6937C84.413 91.1517 82.7799 91.5393 81.1372 91.8932C80.9099 91.9452 80.7064 92.0388 80.4555 91.9643C80.3244 91.9287 80.1643 91.9617 80.0218 92.0139C78.8111 92.3551 77.5548 92.4912 76.3129 92.6355C75.8792 92.6851 75.7053 92.5405 75.6557 92.1068C75.5777 91.5722 75.8238 91.2003 76.33 91.0214C76.8025 90.8519 77.2969 90.8458 77.7803 90.7579C78.4606 90.6388 79.1504 90.5534 79.8293 90.3863C80.2697 90.2743 80.7276 90.1816 81.1756 90.14C81.6237 90.0985 82.0416 89.9928 82.4644 89.8616C83.3437 89.5897 84.2497 89.4554 85.1272 89.2202C86.6692 88.8099 88.2696 88.6494 89.8007 88.1575C90.2989 87.9929 90.8335 87.9149 91.3063 87.6607C91.5067 87.5558 91.7305 87.5774 91.9467 87.5286C93.4278 87.1597 94.844 86.6034 96.303 86.156C97.0366 85.9251 97.7669 85.683 98.5005 85.4521C98.7246 85.389 98.9601 85.3226 99.1685 85.2034C99.3464 85.1049 99.5482 85.048 99.7451 85.0167C100.299 84.9212 100.722 85.2619 100.758 85.8203C100.772 85.9979 100.691 86.1416 100.55 86.2419C100.417 86.3278 100.276 86.4281 100.119 86.4723C98.897 86.8166 97.7607 87.3787 96.5564 87.7423C95.4529 88.0774 94.4049 88.5663 93.244 88.8692L93.2072 88.8674Z" fill="#EAC93E"/>
                          <path d="M81.3406 66.935C81.9127 68.4072 80.3122 70.3707 78.5544 70.2731C77.8298 70.2352 77.1651 70.0232 76.528 69.6945C76.3444 69.6011 76.2154 69.4438 76.1056 69.2691C75.6649 68.6068 75.4165 67.854 75.5521 67.0898C75.6583 66.4791 75.9628 65.8851 76.5018 65.4791C76.6013 65.4027 76.7151 65.3343 76.8002 65.2498C77.4761 64.5996 78.2826 64.5418 79.1379 64.7001C79.456 64.7556 79.7693 64.8368 80.063 65.0202C80.8052 65.4644 81.1253 65.8703 81.3437 66.9462L81.3406 66.935Z" fill="#090707"/>
                          <path d="M60.6704 73.5335C59.4502 73.841 58.4257 73.5973 57.5729 72.7607C57.3896 72.5824 57.256 72.366 57.1833 72.1082C56.8109 70.7006 57.4471 69.0936 58.7452 68.4616C59.7981 67.9472 61.1673 67.997 62.0764 69.2049C63.1239 70.6037 62.6025 71.888 61.8245 72.9058C61.5143 73.3078 61.0785 73.479 60.6592 73.5366L60.6704 73.5335Z" fill="#090707"/>
                          <path d="M74.2757 69.6881C74.3103 71.1424 74.1218 72.4055 73.2475 73.511C72.7653 74.1187 72.2022 74.5678 71.4988 74.8628C70.9012 75.1037 70.2867 75.1559 69.6533 75.1408C68.6551 75.1195 67.78 74.6764 66.9435 74.1982C66.2651 73.8086 65.7329 73.2083 65.2922 72.546C65.0997 72.2494 65.1291 72.0959 65.4145 71.9066C65.6503 71.7555 65.8541 71.577 66.0723 71.4067C66.3819 71.1742 66.4299 71.1728 66.7071 71.4698C67.2378 72.022 67.7958 72.5424 68.447 72.9639C68.8013 73.1908 69.1304 73.3279 69.5672 73.2895C70.489 73.2113 71.3266 72.9632 71.9961 72.2906C72.5725 71.7168 72.823 71.017 72.802 70.2123C72.7974 70.153 72.7848 70.1082 72.7802 70.049C72.7476 69.3322 72.9899 69.1187 73.6964 69.3069C73.9441 69.3702 74.3361 69.3444 74.2981 69.6818L74.2757 69.6881Z" fill="#BE481F"/>
                          <path d="M71.8586 67.9364C72.0556 68.7641 71.7766 69.363 71.2279 69.8202C70.3229 70.5591 69.2689 70.9408 68.0744 70.7813C67.6235 70.7268 67.2356 70.5094 66.9022 70.2283C66.1893 69.6306 66.3693 68.5514 66.8175 68.0379C67.8263 66.8946 69.1077 66.4609 70.6136 66.7384C71.3042 66.8705 71.7249 67.3328 71.8618 67.9476L71.8586 67.9364Z" fill="#EAC93E"/>
                          <path d="M109.832 113.344C109.339 113.483 108.857 113.619 108.386 113.751C108.027 113.852 107.909 113.777 107.722 113.455C107.632 113.31 107.558 113.174 107.491 113.023C107.275 112.515 107.353 112.361 107.896 112.183C108.139 112.103 108.383 112.022 108.636 111.975C110.136 111.588 111.589 111.034 113.015 110.426C113.252 110.323 113.525 110.174 113.754 110.472C113.989 110.793 114.304 111.092 114.116 111.544C114.029 111.75 113.831 111.818 113.649 111.905C113.159 112.14 112.651 112.356 112.154 112.569C111.395 112.879 110.629 113.168 109.846 113.352L109.832 113.344Z" fill="#EAC93E"/>
                          <path d="M105.278 108.13C106.111 107.822 106.913 107.705 107.648 107.353C108.225 107.082 108.723 107.389 108.785 107.952C108.822 108.256 108.584 108.614 108.168 108.767C107.774 108.915 107.407 109.115 107.003 109.229C106.226 109.435 105.456 109.665 104.683 109.883C103.909 110.1 103.461 109.84 103.22 109.073C103.179 108.927 103.247 108.823 103.329 108.727C103.422 108.629 103.551 108.616 103.675 108.581C104.235 108.424 104.807 108.262 105.289 108.127L105.278 108.13Z" fill="#EAC93E"/>
                          <path d="M79.2248 117.613C79.5071 117.412 79.8554 117.532 80.1819 117.488C81.0525 117.4 81.9012 117.149 82.7669 117.086C83.1814 117.054 83.2196 117.104 83.2822 117.498C83.4305 118.497 83.317 118.48 82.4254 118.622C81.7531 118.727 81.125 118.989 80.4387 119.001C79.9811 119.009 79.5328 119.135 79.0888 118.933C78.6591 118.74 78.6465 118.695 78.6228 118.181C78.6114 117.797 78.8293 117.712 79.1127 117.644C79.1463 117.635 79.1799 117.625 79.2248 117.613Z" fill="#EAC93E"/>
                          <path d="M107.9 84.801C107.473 84.4011 107.262 83.8676 107.032 83.3517C106.881 83.0312 106.751 82.7411 106.301 82.9891C105.801 83.2752 105.723 83.4301 105.974 83.8917C106.195 84.2893 106.45 84.6773 106.682 85.0717C106.795 85.2577 106.933 85.4486 106.841 85.6802C105.674 86.4326 104.624 87.3455 103.533 88.1973C103.246 88.4234 103.029 88.7266 102.763 88.9832C102.631 89.1171 102.587 89.2625 102.646 89.4275C102.795 89.8696 102.729 90.3237 102.748 90.7781C102.781 91.4949 102.601 92.1869 102.366 92.8579C101.946 94.029 101.232 95.0166 100.258 95.8114C99.7752 96.2015 99.3097 96.611 98.7409 96.868C97.9685 97.2188 97.1614 97.4462 96.3061 97.2879C96.0647 97.247 95.8391 97.2622 95.6009 97.2325C94.747 97.1222 94.0913 96.6415 93.495 96.0714C93.0853 95.6908 93.0772 95.7051 92.6903 96.0924C92.1717 96.6137 91.5941 97.0547 90.8974 97.2873C90.6091 97.3806 90.3366 97.53 90.0339 97.6153C89.1035 97.8775 88.1856 97.7973 87.2843 97.5189C86.5684 97.2971 85.9187 96.9236 85.4973 96.2437C85.2364 95.8332 84.8761 95.4992 84.6811 95.0217C84.513 94.5972 84.337 94.187 84.3371 93.7151C84.338 93.4607 84.2909 93.2078 84.2775 92.9454C84.2394 92.4237 84.2524 92.3838 83.7489 92.2715C82.8872 92.0908 82.2238 91.5397 81.5071 91.1003C81.2996 90.9652 81.1051 90.7901 80.9764 90.5481C80.8747 90.3589 80.7121 90.2112 80.498 90.1384C80.2069 89.6638 79.9303 89.1973 79.6393 88.7227C79.5035 88.2407 79.334 87.7681 79.2879 87.2608C79.2188 86.4575 79.0874 85.6475 79.2216 84.8354C79.2918 84.4405 79.4594 84.0908 79.6383 83.7379C80.1427 82.7367 80.8479 81.933 81.7207 81.2515C81.8394 81.1575 81.9501 81.0779 82.0656 80.9728C82.3384 80.7386 82.3384 80.7386 82.1141 80.4146C82.079 80.3761 82.052 80.3232 82.0282 80.2815C81.5331 78.7392 81.3978 77.2285 82.232 75.723C82.8488 74.6054 83.6503 73.7141 84.7039 73.0301C85.5553 72.4877 86.4556 72.1614 87.4624 71.9987C88.0163 71.9031 88.5719 71.7708 89.1349 71.7937C90.0178 71.8353 90.9111 71.6562 91.764 72.0208C91.9557 72.0999 92.1368 72.0126 92.326 71.9109C92.8517 71.6297 93.2884 71.2041 93.811 70.9117C94.0762 70.9942 94.1121 71.2503 94.2313 71.4587C95.042 72.8759 95.8912 74.258 96.9842 75.4746C97.1801 75.6977 97.4115 75.8745 97.7526 75.7541C98.3709 75.5436 98.465 75.1904 98.0352 74.6098C97.0928 73.3265 96.1585 72.0289 95.3797 70.6391C95.2573 70.4195 95.0677 70.2188 95.1583 69.9392C95.912 69.4364 96.6658 68.9336 97.4083 68.434C97.6825 68.2479 98.0539 68.1916 98.2422 67.8724C98.6996 68.3364 98.9213 68.9515 99.2761 69.4807C99.631 70.0099 99.9056 70.598 100.393 71.0413C100.62 71.2437 100.837 71.3277 101.129 71.1608C101.568 70.916 101.609 70.7594 101.3 70.3504C100.638 69.4601 100.259 68.4173 99.6529 67.5112C99.5877 67.4086 99.5498 67.274 99.5967 67.1398C100.028 66.7399 100.534 66.4282 101.034 66.142C101.62 65.8194 102.156 65.4023 102.784 65.1406C103.044 65.0312 103.24 64.7823 103.501 64.6361C106.881 62.6312 110.056 60.0304 113.076 57.5218C116.245 54.8986 119.26 52.1133 122.116 49.1546C122.369 48.89 122.666 48.6127 123.019 48.622C123.565 48.6256 123.879 49.2266 124.061 49.744C127.204 58.3206 125.395 68.3044 119.717 75.4217C117.366 78.371 114.397 80.8046 111.117 82.6483C110.72 82.8692 107.747 84.6869 107.835 84.7832L107.9 84.801Z" fill="#36934B"/>
                          <path d="M95.2125 69.9596C95.6354 70.6874 96.0278 71.4359 96.4924 72.1399C96.9808 72.8856 97.5301 73.5899 98.0458 74.3036C98.2081 74.5362 98.4233 74.7418 98.5279 75.0269C98.6482 75.3681 98.6286 75.4704 98.3351 75.6741C98.2357 75.7505 98.1218 75.8189 98.0049 75.876C97.5961 76.1001 97.3084 76.0239 96.9768 75.7059C96.2961 75.0507 95.8592 74.2301 95.3277 73.4602C95.097 73.1138 94.8358 72.7881 94.6244 72.4242C94.3302 71.9384 94.0473 71.4495 93.8477 70.9128C94.257 70.5192 94.6584 70.1399 95.2094 69.9484L95.2125 69.9596Z" fill="#EAC93E"/>
                          <path d="M99.6512 67.161C100.053 67.8584 100.486 68.5351 100.866 69.2387C101.066 69.6058 101.244 69.9792 101.527 70.2986C101.633 70.4142 101.702 70.576 101.791 70.7203C101.877 70.8534 101.835 70.962 101.713 71.0448C101.68 71.0542 101.653 71.0861 101.622 71.1068C100.806 71.6877 100.814 71.6734 100.114 70.9509C99.7905 70.6186 99.5584 70.2242 99.3375 69.8267C98.9879 69.1871 98.5437 68.5983 98.3079 67.8904C98.4287 67.6749 98.5747 67.549 98.8357 67.4876C99.1191 67.4198 99.3916 67.2705 99.6624 67.1579L99.6512 67.161Z" fill="#EAC93E"/>
                          <path d="M106.841 85.6797C106.455 85.0384 106.068 84.3971 105.682 83.7558C105.456 83.3838 105.469 83.3439 105.82 83.0876C106.034 82.9428 106.25 82.8092 106.464 82.6644C106.627 82.5578 106.779 82.5392 106.873 82.7427C107.209 83.4222 107.644 84.0621 107.897 84.7893C107.617 85.1707 107.177 85.3674 106.841 85.6797Z" fill="#EAC93E"/>
                        </svg>